<svg id="Layer_1" data-name="Layer 1" xmlns="http://www.w3.org/2000/svg" viewBox="0 0 512 512"><title>cross-heart-flat</title><circle cx="256" cy="256" r="256" fill="#f3eeda"/><path d="M295.06,217V133.18H216.94V217H133.17v78.11h83.77v83.76h78.12V295.06h83.77V217Zm-19.2,61a79.52,79.52,0,0,0-17.2,18.22,80.07,80.07,0,0,0-17.21-18.22C227.48,267,221,257.62,221,248.36c0-14.09,9.09-19.09,16.87-19.09,7.25,0,14.1,4,18.33,10.62l0,.07.07.07a3,3,0,0,0,2.27,1.14h.17A3,3,0,0,0,261,240l0-.06.07-.06c4.23-6.64,11.09-10.62,18.34-10.62,7.77,0,16.86,5,16.86,19.09C296.33,257.62,289.83,267,275.86,277.94Z" fill="#98d3cb"/></svg>